<?xml version="1.0" encoding="UTF-8"?>
<svg id="Layer_1" data-name="Layer 1" xmlns="http://www.w3.org/2000/svg" viewBox="0 0 1500 1500">
  <defs>
    <style>
      .cls-1 {
        fill: #14161e;
      }

      .cls-1, .cls-2 {
        stroke-width: 0px;
      }

      .cls-2 {
        fill: #e8e9e1;
      }
    </style>
  </defs>
  <rect class="cls-2" x="-14.76" y="-14.64" width="1535" height="1536"/>
  <path class="cls-1" d="m752.74,183.86c-314.53,0-569.5,254.97-569.5,569.5s254.97,569.5,569.5,569.5,569.5-254.97,569.5-569.5S1067.27,183.86,752.74,183.86Zm0,1065.5c-273.93,0-496-222.07-496-496s222.07-496,496-496,496,222.07,496,496-222.07,496-496,496Z"/>
  <path class="cls-1" d="m396.31,460.28s-41.29,281,212.07,282l3.45-79s-122.09,21-140.09-129l240-2-5,225s-105.76,219.65-185,255c-65,29-64-34-60-131l-76,1s-35,225,116,218c0,0,101,11,214-187l-2,186h78.5s-.5,0-.5,0l-2-186c109,199,214,187,214,187,151,7,116-218,116-218l-76-1c4,97,5,160-60,131-79.24-35.35-185-255-185-255l-5-225,240,2c-18,150-140.09,129-140.09,129l3.45,79c253.36-1,212.07-282,212.07-282H397.24"/>
</svg>